<svg id="icon_devices" xmlns="http://www.w3.org/2000/svg" width="32" height="32" viewBox="0 0 32 32">
  <rect id="bg" width="32" height="32" fill="none"/>
  <path id="path" d="M24.251,13.776h-.7V6.095A2.1,2.1,0,0,0,21.458,4H6.095A2.1,2.1,0,0,0,4,6.095V17.268a2.1,2.1,0,0,0,2.095,2.095h6.983v2.793H9.586a.7.7,0,1,0,0,1.4h8.38v.7a2.1,2.1,0,0,0,2.095,2.095h4.19a2.1,2.1,0,0,0,2.095-2.095v-8.38a2.1,2.1,0,0,0-2.095-2.095Zm-4.888,4.19h5.586v4.19H19.363Zm5.586-2.095v.7H19.363v-.7a.7.7,0,0,1,.7-.7h4.19A.7.7,0,0,1,24.949,15.871ZM6.095,5.4H21.458a.7.7,0,0,1,.7.7v7.681H20.061a2.091,2.091,0,0,0-1.966,1.4H5.4V6.095A.7.7,0,0,1,6.095,5.4ZM5.4,17.268v-.7h12.57v1.4H6.095a.7.7,0,0,1-.7-.7Zm9.078,4.888V19.363h3.492v2.793Zm9.776,2.793h-4.19a.7.7,0,0,1-.7-.7v-.7h5.586v.7A.7.7,0,0,1,24.251,24.949Z" transform="translate(1.058 1.057)" fill="#73808a" stroke="#73808a" stroke-width="0.5"/>
</svg>
