<svg id="icon_user" xmlns="http://www.w3.org/2000/svg" width="32" height="32" viewBox="0 0 32 32">
  <rect id="bg" width="32" height="32" fill="none"/>
  <path id="bath" d="M19.638,15.921a6.469,6.469,0,1,0-6.924,0A12.193,12.193,0,0,0,4,27.588a.761.761,0,0,0,.761.761h22.83a.761.761,0,0,0,.761-.761,12.193,12.193,0,0,0-8.714-11.668ZM11.23,10.466a4.947,4.947,0,1,1,4.947,4.947A4.947,4.947,0,0,1,11.23,10.466ZM5.549,26.827a10.655,10.655,0,0,1,21.255,0Z" transform="translate(0.059 0.071)" fill="#73808a" stroke="#73808a" stroke-width="0.3"/>
</svg>
