<svg xmlns="http://www.w3.org/2000/svg" width="23.252" height="23.64" viewBox="0 0 23.252 23.64">
  <g id="Group_4338" data-name="Group 4338" transform="translate(-369.412 -3442.412)">
    <g id="path" transform="translate(371.83 3442.412)" fill="none" stroke="#fff" stroke-linejoin="round" stroke-width="2">
      <rect width="18.257" height="22.822" stroke="none"/>
      <rect x="1" y="1" width="16.257" height="20.822" fill="none"/>
    </g>
    <path id="path-2" data-name="path" d="M-72.27,349.583h23.252" transform="translate(441.682 3115.219)" fill="none" stroke="#fff" stroke-width="2.5"/>
    <g id="object" transform="translate(374.873 3451.555)" fill="none">
      <path d="M2.713,0A2.713,2.713,0,1,1,0,2.713,2.713,2.713,0,0,1,2.713,0Z" stroke="none"/>
      <path d="M 2.712791204452515 2.000001192092896 C 2.319761276245117 2.000001192092896 2.000001192092896 2.319761276245117 2.000001192092896 2.712791204452515 C 2.000001192092896 3.105821132659912 2.319761276245117 3.425581216812134 2.712791204452515 3.425581216812134 C 3.105821132659912 3.425581216812134 3.425581216812134 3.105821132659912 3.425581216812134 2.712791204452515 C 3.425581216812134 2.319761276245117 3.105821132659912 2.000001192092896 2.712791204452515 2.000001192092896 M 2.712791204452515 1.430511474609375e-06 C 4.211021423339844 1.430511474609375e-06 5.425580978393555 1.214560985565186 5.425580978393555 2.712791204452515 C 5.425580978393555 4.211021423339844 4.211021423339844 5.425580978393555 2.712791204452515 5.425580978393555 C 1.214560985565186 5.425580978393555 1.430511474609375e-06 4.211021423339844 1.430511474609375e-06 2.712791204452515 C 1.430511474609375e-06 1.214560985565186 1.214560985565186 1.430511474609375e-06 2.712791204452515 1.430511474609375e-06 Z" stroke="none" fill="#fff"/>
    </g>
  </g>
</svg>
