<svg xmlns="http://www.w3.org/2000/svg" width="16" height="16.514" viewBox="0 0 16 16.514">
  <g id="icon_open" transform="translate(-1.178 3.781)">
    <rect id="bg" width="16" height="16" transform="translate(1.178 -3.267)" fill="#fff" opacity="0"/>
    <g id="Group_4294" data-name="Group 4294" transform="translate(4.178 -2.267)">
      <path id="layer2" d="M.09,4.84.042,2.247A2.408,2.408,0,0,1,2.719.05a2.632,2.632,0,0,1,2.761,2.3l.113,1.34" transform="translate(0 3.006) rotate(-34)" fill="none" stroke="#036fc2" stroke-linecap="round" stroke-linejoin="round" stroke-miterlimit="10" stroke-width="2"/>
      <path id="layer1" d="M2,0H8a2,2,0,0,1,2,2V4.672a4,4,0,0,1-4,4H4a4,4,0,0,1-4-4V2A2,2,0,0,1,2,0Z" transform="translate(0.891 5.328)" fill="#036fc2"/>
      <circle id="object" cx="1.25" cy="1.25" r="1.25" transform="translate(4.501 7.715)" fill="#e6eef5"/>
    </g>
  </g>
</svg>
