<svg xmlns="http://www.w3.org/2000/svg" width="48" height="48" viewBox="0 0 48 48">
  <g id="close" transform="translate(-53 -255)">
    <rect id="bg" width="48" height="48" rx="4" transform="translate(53 255)" fill="#ebedee"/>
    <text id="施錠" transform="translate(65 296)" fill="#333" font-size="12" font-family="NotoSansCJKjp-Regular, Noto Sans CJK JP"><tspan x="0" y="0">施錠</tspan></text>
    <g id="icon_close" transform="translate(63.822 261.267)">
      <rect id="bg-2" data-name="bg" width="24" height="24" transform="translate(1.178 -3.267)" fill="#fff" opacity="0"/>
      <g id="Group_4294" data-name="Group 4294" transform="translate(5.653 -0.191)">
        <path id="layer2" d="M.108,7.195.042,3.327A3.4,3.4,0,0,1,3.713.05,3.719,3.719,0,0,1,7.5,3.476V6.781" transform="translate(3.688 -0.049)" fill="none" stroke="#73808a" stroke-linecap="round" stroke-linejoin="round" stroke-miterlimit="10" stroke-width="2"/>
        <path id="layer1" d="M2,0H12.916a2,2,0,0,1,2,2V8.936a4,4,0,0,1-4,4H4a4,4,0,0,1-4-4V2A2,2,0,0,1,2,0Z" transform="translate(0 6.363)" fill="#73808a"/>
        <circle id="object" cx="1.865" cy="1.865" r="1.865" transform="translate(5.594 9.902)" fill="#ebedee"/>
      </g>
    </g>
  </g>
</svg>
