<svg xmlns="http://www.w3.org/2000/svg" width="16" height="16" viewBox="0 0 16 16">
  <g id="icon_close" transform="translate(-1.178 3.267)">
    <rect id="bg" width="16" height="16" transform="translate(1.178 -3.267)" fill="#fff" opacity="0"/>
    <g id="Group_4294" data-name="Group 4294" transform="translate(4.178 -2.267)">
      <path id="layer2" d="M.086,4.84.042,2.247A2.28,2.28,0,0,1,2.5.05a2.493,2.493,0,0,1,2.538,2.3V4.563" transform="translate(2.459 1.013)" fill="none" stroke="#73808a" stroke-linecap="round" stroke-linejoin="round" stroke-miterlimit="10" stroke-width="2"/>
      <path id="layer1" d="M2,0H8a2,2,0,0,1,2,2V4.672a4,4,0,0,1-4,4H4a4,4,0,0,1-4-4V2A2,2,0,0,1,2,0Z" transform="translate(0 5.328)" fill="#73808a"/>
      <circle id="object" cx="1.25" cy="1.25" r="1.25" transform="translate(3.75 7.7)" fill="#ebedee"/>
    </g>
  </g>
</svg>
