<svg xmlns="http://www.w3.org/2000/svg" width="48" height="48" viewBox="0 0 48 48">
  <g id="open" transform="translate(-53 -255)">
    <rect id="bg" width="48" height="48" rx="4" transform="translate(53 255)" fill="#f0f4f7"/>
    <text id="解錠中" transform="translate(59 296)" fill="#8898a5" font-size="12" font-family="NotoSansCJKjp-Regular, Noto Sans CJK JP"><tspan x="0" y="0">解錠中</tspan></text>
    <g id="Group_4434" data-name="Group 4434" transform="translate(-4825.19 -14674)">
      <rect id="bg-2" data-name="bg" width="23.861" height="23.861" transform="translate(4890.19 14932)" fill="#fff" opacity="0"/>
      <path id="layer1" d="M14.772,1.144A3.95,3.95,0,0,0,8.5,5.8L3.185,11.151,1.631,9.571l-1.5,1.5,1.58,1.554L.473,13.863a1.132,1.132,0,1,0,1.58,1.58l8.058-8.032a3.95,3.95,0,0,0,4.661-6.267Zm-1.5,4.108a1.843,1.843,0,1,1,0-2.607A1.843,1.843,0,0,1,13.271,5.252Z" transform="translate(4902.936 14933.492) rotate(45)" fill="#8898a5" stroke="#8898a5" stroke-linecap="round" stroke-linejoin="round" stroke-miterlimit="10" stroke-width="1"/>
    </g>
  </g>
</svg>
