<svg xmlns="http://www.w3.org/2000/svg" xmlns:xlink="http://www.w3.org/1999/xlink" width="136" height="136" viewBox="0 0 136 136">
  <defs>
    <clipPath id="clip-path">
      <circle id="mask" cx="68" cy="68" r="68" fill="#8898a5"/>
    </clipPath>
  </defs>
  <g id="Group_4441" data-name="Group 4441" transform="translate(-122 -1439)">
    <g id="icon_user_group" transform="translate(-493 835)">
      <circle id="bg" cx="68" cy="68" r="68" transform="translate(615 604)" fill="#f0f4f7"/>
      <g id="icon" transform="translate(615 604)" clip-path="url(#clip-path)">
        <path id="path" d="M0,126.853V93.028H92.1v33.825ZM0,93.028A52.2,52.2,0,0,1,2.576,76.742,46.029,46.029,0,0,1,33.064,45.565,25.016,25.016,0,0,1,22.832,17.825a23.9,23.9,0,0,1,46.226,0A25,25,0,0,1,58.826,45.565,45.722,45.722,0,0,1,87.009,70.547,51.6,51.6,0,0,1,92.1,93.028Z" transform="translate(21.721 25.197)" fill="#d4dee5"/>
      </g>
      <circle id="flame" cx="68" cy="68" r="68" transform="translate(615 604)" fill="none"/>
    </g>
  </g>
</svg>
