<svg xmlns="http://www.w3.org/2000/svg" width="32" height="32" viewBox="0 0 32 32">
  <g id="icon_ei-mail" transform="translate(0.224 0.078)">
    <rect id="bg" width="32" height="32" transform="translate(-0.224 -0.078)" fill="none"/>
    <g id="Group_13" data-name="Group 13" transform="translate(5.306 7.032)">
      <path id="Path_20" data-name="Path 20" d="M22.992,8H5.965A1.962,1.962,0,0,0,4,9.955V21.686a1.962,1.962,0,0,0,1.965,1.955H22.992a1.962,1.962,0,0,0,1.965-1.955V9.955A1.962,1.962,0,0,0,22.992,8Zm-.271,1.3-8.243,8.2L6.236,9.3Zm.271,13.035H5.965a.654.654,0,0,1-.655-.652V10.225l8.706,8.663a.657.657,0,0,0,.926,0l8.706-8.663V21.686A.654.654,0,0,1,22.992,22.338Z" transform="translate(-4 -5.471)" fill="#036fc2" stroke="#036fc2" stroke-width="0.5"/>
      <circle id="Ellipse_5" data-name="Ellipse 5" cx="3.95" cy="3.95" r="3.95" transform="translate(15.415 0)" fill="#036fc2"/>
    </g>
  </g>
</svg>
