<svg id="icon_cloud" xmlns="http://www.w3.org/2000/svg" width="32" height="32" viewBox="0 0 32 32">
  <rect id="bg" width="32" height="32" fill="none"/>
  <path id="path" d="M25.37,15.573a6.622,6.622,0,0,0,.266-1.859A6.716,6.716,0,0,0,12.8,10.946a4.291,4.291,0,0,0-1.341-.216,4.481,4.481,0,0,0-4.476,4.476,4.3,4.3,0,0,0,.165,1.179A5.22,5.22,0,0,0,9.222,26.4H21.906A5.966,5.966,0,0,0,25.37,15.573Zm-3.464,9.333H9.222a3.728,3.728,0,0,1-.917-7.342.746.746,0,0,0,.487-1.052,2.95,2.95,0,0,1-.315-1.305,2.987,2.987,0,0,1,2.984-2.984,2.94,2.94,0,0,1,1.407.371.746.746,0,0,0,1.067-.434,5.221,5.221,0,1,1,9.846,3.455.747.747,0,0,0,.327.921,4.474,4.474,0,0,1-2.2,8.37Z" transform="translate(-0.02 -0.632)" fill="#036fc2" stroke="#036fc2" stroke-width="0.5"/>
</svg>
