<svg xmlns="http://www.w3.org/2000/svg" xmlns:xlink="http://www.w3.org/1999/xlink" width="40" height="40" viewBox="0 0 40 40">
  <defs>
    <clipPath id="clip-path">
      <circle id="mask" cx="20" cy="20" r="20" fill="#fcfcfc"/>
    </clipPath>
  </defs>
  <g id="icon" clip-path="url(#clip-path)">
    <path id="path" d="M0,31V27.867H0A15.9,15.9,0,0,1,.757,22.99,13.638,13.638,0,0,1,9.695,13.65a7.573,7.573,0,0,1-3-8.312A7.109,7.109,0,0,1,13.469,0a7.109,7.109,0,0,1,6.775,5.337,7.573,7.573,0,0,1-3,8.312,13.5,13.5,0,0,1,8.262,7.482A15.734,15.734,0,0,1,27,27.866h0V31Z" transform="translate(6.501 9.002)" fill="#fcfcfc"/>
  </g>
</svg>
